<!--?xml version="1.0" standalone="no"?-->
              <svg id="sw-js-blob-svg" viewBox="0 0 100 100" xmlns="http://www.w3.org/2000/svg" version="1.1">
                    <defs> 
                        <linearGradient id="sw-gradient" x1="0" x2="1" y1="1" y2="0">
                            <stop id="stop1" stop-color="rgba(248, 117, 55, 1)" offset="0%"></stop>
                            <stop id="stop2" stop-color="rgba(251, 168, 31, 1)" offset="100%"></stop>
                        </linearGradient>
                    </defs>
                <path fill="url(#sw-gradient)" d="M22.4,-25.5C28.5,-21.5,32.7,-14,33.4,-6.4C34.1,1.1,31.2,8.8,27.1,15.4C23,22,17.5,27.6,10.6,30.9C3.7,34.1,-4.7,35.1,-11.4,32.2C-18.2,29.4,-23.2,22.9,-28.5,15.6C-33.8,8.3,-39.3,0.2,-38.4,-7C-37.4,-14.3,-30,-20.6,-22.6,-24.4C-15.1,-28.2,-7.5,-29.4,0.3,-29.8C8.1,-30.1,16.2,-29.5,22.4,-25.5Z" width="100%" height="100%" transform="translate(50 50)" stroke-width="0" style="transition: all 0.3s ease 0s;"></path>
              </svg>